<svg width="32" height="32" viewBox="0 0 32 32" fill="none" xmlns="http://www.w3.org/2000/svg">
<path d="M7.86399 23.0119C9.06387 23.0119 10.0366 22.0392 10.0366 20.8393C10.0366 19.6394 9.06387 18.6667 7.86399 18.6667C6.66411 18.6667 5.69141 19.6394 5.69141 20.8393C5.69141 22.0392 6.66411 23.0119 7.86399 23.0119Z" stroke="#F4F6F9" stroke-width="1.6" stroke-miterlimit="10"/>
<path d="M23.6179 23.0119C24.8178 23.0119 25.7905 22.0392 25.7905 20.8393C25.7905 19.6394 24.8178 18.6667 23.6179 18.6667C22.418 18.6667 21.4453 19.6394 21.4453 20.8393C21.4453 22.0392 22.418 23.0119 23.6179 23.0119Z" stroke="#F4F6F9" stroke-width="1.6" stroke-miterlimit="10"/>
<path d="M5.7749 21.3334L3.6951 21.0217C3.09509 20.8881 2.66699 20.3435 2.66699 19.7201V16.7845C2.66699 16.4762 2.84565 16.1988 3.11868 16.072C4.4232 15.476 5.42433 15.2088 6.84683 15.0718L9.03113 14.808C9.19967 14.7943 9.3581 14.743 9.50304 14.6539C10.0525 14.3148 12.5199 12.6089 14.0469 11.5505C14.8526 10.9922 15.8031 10.6839 16.7773 10.6667L22.9897 10.8346C24.1763 10.8654 25.3224 11.2628 26.2831 11.9718L28.4943 13.6057C29.0134 13.914 29.3337 14.4792 29.3337 15.0889V18.9048C29.3337 19.679 28.7134 20.3777 27.9584 20.4599L25.8583 20.686" stroke="#F4F6F9" stroke-width="1.6" stroke-miterlimit="10"/>
<path d="M9.96973 21.3334H21.4453" stroke="#F4F6F9" stroke-width="1.6" stroke-miterlimit="10"/>
</svg>
