<svg width="28" height="28" viewBox="0 0 28 28" fill="none" xmlns="http://www.w3.org/2000/svg">
<path d="M13.9991 10.3057C12.0021 10.3057 10.3047 12.0031 10.3047 14.0001C10.3047 15.9971 12.0021 17.6946 13.9991 17.6946C15.9961 17.6946 17.6936 15.9971 17.6936 14.0001C17.6936 12.0031 15.9961 10.3057 13.9991 10.3057Z" fill="#5F6065"/>
<path d="M18.7359 2.9165H9.36548C5.7382 2.9165 2.91699 5.73772 2.91699 9.26423V18.6347C2.91699 22.262 5.7382 25.0832 9.36548 25.0832H18.7359C22.2624 25.0832 25.0837 22.262 25.0837 18.6347V9.26423C25.0837 5.73772 22.2624 2.9165 18.7359 2.9165ZM14.0003 19.8438C10.7761 19.8438 8.25714 17.2241 8.25714 14.1006C8.25714 10.9771 10.7761 8.25666 14.0003 8.25666C17.2246 8.25666 19.7435 10.8764 19.7435 13.9998C19.7435 17.1233 17.2246 19.8438 14.0003 19.8438ZM19.945 9.46575C19.2397 9.46575 18.6352 8.8612 18.6352 8.1559C18.6352 7.45059 19.2397 6.84605 19.945 6.84605C20.6503 6.84605 21.2549 7.45059 21.2549 8.1559C21.2549 8.8612 20.6503 9.46575 19.945 9.46575Z" fill="#5F6065"/>
</svg>
