<svg width="28" height="28" viewBox="0 0 28 28" fill="none" xmlns="http://www.w3.org/2000/svg">
<path fill-rule="evenodd" clip-rule="evenodd" d="M24.0301 5.50131C25.1349 5.7956 26.0041 6.66942 26.2984 7.7832C26.8327 9.79796 26.8282 13.9995 26.8282 13.9995C26.8282 13.9995 26.8282 18.2011 26.2939 20.2158C25.9996 21.3251 25.1303 22.1989 24.0256 22.4977C22.0244 23.0365 13.9971 23.0365 13.9971 23.0365C13.9971 23.0365 5.96974 23.0365 3.96857 22.4977C2.86385 22.2034 1.99456 21.3296 1.70027 20.2158C1.16602 18.2011 1.16602 13.9995 1.16602 13.9995C1.16602 13.9995 1.16602 9.79796 1.70479 7.77867C1.99908 6.66942 2.86837 5.7956 3.97309 5.49679C5.97427 4.95801 14.0016 4.95801 14.0016 4.95801C14.0016 4.95801 22.0244 4.95801 24.0301 5.50131ZM11.376 10.1826V17.8161L18.0858 13.9993L11.376 10.1826Z" fill="#5F6065"/>
</svg>
